<?xml version="1.0" encoding="UTF-8"?>
<svg xmlns="http://www.w3.org/2000/svg" xmlns:xlink="http://www.w3.org/1999/xlink" width="10pt" height="10pt" viewBox="0 0 10 8" version="1.1">
<g id="surface1">
<path style=" stroke:none;fill-rule:nonzero;fill:rgb(26.666667%,26.666667%,26.666667%);fill-opacity:1;" d="M 9.8125 3.3125 L 9.1875 2.6875 C 9.0625 2.5625 8.9375 2.5 8.75 2.5 L 0.625 2.5 C 0.25 2.5 0 2.75 0 3.125 L 0 6.25 C 0 6.4375 0.0625 6.625 0.1875 6.6875 L 0.8125 7.3125 C 0.9375 7.4375 1.0625 7.5 1.25 7.5 L 9.375 7.5 C 9.75 7.5 10 7.25 10 6.875 L 10 3.75 C 10 3.5625 9.9375 3.4375 9.8125 3.3125 Z M 8.75 6.25 L 0.625 6.25 L 0.625 3.125 L 8.75 3.125 Z M 8.75 6.25 "/>
</g>
</svg>
