<?xml version="1.0" encoding="UTF-8"?>
<svg xmlns="http://www.w3.org/2000/svg" xmlns:xlink="http://www.w3.org/1999/xlink" width="10pt" height="10pt" viewBox="0 0 10 10" version="1.1">
<g id="surface1">
<path style=" stroke:none;fill-rule:nonzero;fill:rgb(0%,0%,0%);fill-opacity:1;" d="M 9.105469 4.105469 L 6.070312 4.105469 C 5.972656 4.105469 5.894531 4.027344 5.894531 3.929688 L 5.894531 0.894531 C 5.894531 0.398438 5.492188 0 5 0 C 4.507812 0 4.105469 0.398438 4.105469 0.894531 L 4.105469 3.929688 C 4.105469 4.027344 4.027344 4.105469 3.929688 4.105469 L 0.894531 4.105469 C 0.398438 4.105469 0 4.507812 0 5 C 0 5.492188 0.398438 5.894531 0.894531 5.894531 L 3.929688 5.894531 C 4.027344 5.894531 4.105469 5.972656 4.105469 6.070312 L 4.105469 9.105469 C 4.105469 9.601562 4.507812 10 5 10 C 5.492188 10 5.894531 9.601562 5.894531 9.105469 L 5.894531 6.070312 C 5.894531 5.972656 5.972656 5.894531 6.070312 5.894531 L 9.105469 5.894531 C 9.601562 5.894531 10 5.492188 10 5 C 10 4.507812 9.601562 4.105469 9.105469 4.105469 Z M 9.105469 4.105469 "/>
</g>
</svg>
